<svg width="380" height="260" viewBox="0 0 380 260" fill="none" xmlns="http://www.w3.org/2000/svg">
<g clip-path="url(#clip0_189_148)">
<rect width="380" height="260" rx="16" fill="#9112BC" fill-opacity="0.03"/>
<g filter="url(#filter0_ddii_189_148)">
<rect x="115.835" y="20.4998" width="145" height="218" rx="10" fill="white"/>
<path d="M170.929 191.5V168.875H179.585C184.492 168.875 186.929 171.375 186.929 174.75C186.929 177.5 185.179 179.031 182.96 179.562V179.781C185.367 179.906 187.804 181.906 187.804 185.344C187.804 188.875 185.273 191.5 180.085 191.5H170.929ZM179.46 188.094C182.429 188.094 183.679 186.812 183.679 185.031C183.679 183 182.085 181.437 179.554 181.437H174.992V188.094H179.46ZM179.085 178.5C181.242 178.5 182.867 177.25 182.867 175.25C182.867 173.5 181.617 172.25 179.179 172.25H174.992V178.5H179.085ZM192.598 191.75C191.254 191.75 190.16 190.656 190.16 189.312C190.16 188 191.254 186.906 192.598 186.906C193.879 186.906 195.004 188 195.004 189.312C195.004 190.656 193.879 191.75 192.598 191.75ZM198.235 191.5V168.875H212.954V172.281H202.298V178.469H212.173V181.875H202.298V188.062H213.017V191.5H198.235Z" fill="#9112BC"/>
<line x1="146.835" y1="129" x2="230.835" y2="129" stroke="#D9D9D9"/>
<path d="M193.107 81.947V83.1775C193.107 84.408 193.107 85.8142 192.72 87.6951H194.882V89.2771H180.363V87.6951H190.751C191.12 85.9812 191.156 84.6716 191.156 83.5115H182.156V81.947H193.107ZM193.089 91.1228V96.8708H182.103V91.1228H193.089ZM184.019 92.6521V95.2888H191.156V92.6521H184.019Z" fill="#111111"/>
</g>
</g>
<defs>
<filter id="filter0_ddii_189_148" x="104.835" y="15.4998" width="163" height="236" filterUnits="userSpaceOnUse" color-interpolation-filters="sRGB">
<feFlood flood-opacity="0" result="BackgroundImageFix"/>
<feColorMatrix in="SourceAlpha" type="matrix" values="0 0 0 0 0 0 0 0 0 0 0 0 0 0 0 0 0 0 127 0" result="hardAlpha"/>
<feOffset dx="-2" dy="4"/>
<feGaussianBlur stdDeviation="4.5"/>
<feComposite in2="hardAlpha" operator="out"/>
<feColorMatrix type="matrix" values="0 0 0 0 0 0 0 0 0 0 0 0 0 0 0 0 0 0 0.05 0"/>
<feBlend mode="normal" in2="BackgroundImageFix" result="effect1_dropShadow_189_148"/>
<feColorMatrix in="SourceAlpha" type="matrix" values="0 0 0 0 0 0 0 0 0 0 0 0 0 0 0 0 0 0 127 0" result="hardAlpha"/>
<feOffset dx="2" dy="2"/>
<feGaussianBlur stdDeviation="1"/>
<feComposite in2="hardAlpha" operator="out"/>
<feColorMatrix type="matrix" values="0 0 0 0 1 0 0 0 0 1 0 0 0 0 1 0 0 0 0.2 0"/>
<feBlend mode="normal" in2="effect1_dropShadow_189_148" result="effect2_dropShadow_189_148"/>
<feBlend mode="normal" in="SourceGraphic" in2="effect2_dropShadow_189_148" result="shape"/>
<feColorMatrix in="SourceAlpha" type="matrix" values="0 0 0 0 0 0 0 0 0 0 0 0 0 0 0 0 0 0 127 0" result="hardAlpha"/>
<feOffset dx="2" dy="2"/>
<feGaussianBlur stdDeviation="1"/>
<feComposite in2="hardAlpha" operator="arithmetic" k2="-1" k3="1"/>
<feColorMatrix type="matrix" values="0 0 0 0 1 0 0 0 0 1 0 0 0 0 1 0 0 0 0.2 0"/>
<feBlend mode="normal" in2="shape" result="effect3_innerShadow_189_148"/>
<feColorMatrix in="SourceAlpha" type="matrix" values="0 0 0 0 0 0 0 0 0 0 0 0 0 0 0 0 0 0 127 0" result="hardAlpha"/>
<feOffset dx="-1" dy="-1"/>
<feGaussianBlur stdDeviation="0.5"/>
<feComposite in2="hardAlpha" operator="arithmetic" k2="-1" k3="1"/>
<feColorMatrix type="matrix" values="0 0 0 0 0 0 0 0 0 0 0 0 0 0 0 0 0 0 0.04 0"/>
<feBlend mode="normal" in2="effect3_innerShadow_189_148" result="effect4_innerShadow_189_148"/>
</filter>
<clipPath id="clip0_189_148">
<rect width="380" height="260" rx="16" fill="white"/>
</clipPath>
</defs>
</svg>
