<svg width="380" height="260" viewBox="0 0 380 260" fill="none" xmlns="http://www.w3.org/2000/svg">
<g clip-path="url(#clip0_189_149)">
<rect width="380" height="260" rx="16" fill="#9112BC" fill-opacity="0.03"/>
<g filter="url(#filter0_ddii_189_149)">
<rect x="115.309" y="20.5" width="145" height="218" rx="10" fill="white"/>
<path d="M169.593 191.5V168.875H184.093V172.281H173.656V178.469H183.093V181.875H173.656V191.5H169.593ZM187.949 191.75C186.606 191.75 185.512 190.656 185.512 189.312C185.512 188 186.606 186.906 187.949 186.906C189.231 186.906 190.356 188 190.356 189.312C190.356 190.656 189.231 191.75 187.949 191.75ZM193.587 191.5V168.875H208.306V172.281H197.649V178.469H207.524V181.875H197.649V188.062H208.368V191.5H193.587Z" fill="#9112BC"/>
<line x1="146.309" y1="129" x2="230.309" y2="129" stroke="#D9D9D9"/>
<path d="M188.115 82.4922C188.115 84.4961 190.348 86.5176 193.74 86.957L192.967 88.5391C190.269 88.1348 188.124 86.8076 187.096 85.0059C186.05 86.8076 183.914 88.1348 181.242 88.5391L180.469 86.957C183.826 86.5176 186.059 84.4961 186.059 82.4922V81.6836H188.115V82.4922ZM194.32 89.9102V91.5273H188.01V97.0645H186.076V91.5273H179.836V89.9102H194.32Z" fill="#111111"/>
</g>
</g>
<defs>
<filter id="filter0_ddii_189_149" x="104.309" y="15.5" width="163" height="236" filterUnits="userSpaceOnUse" color-interpolation-filters="sRGB">
<feFlood flood-opacity="0" result="BackgroundImageFix"/>
<feColorMatrix in="SourceAlpha" type="matrix" values="0 0 0 0 0 0 0 0 0 0 0 0 0 0 0 0 0 0 127 0" result="hardAlpha"/>
<feOffset dx="-2" dy="4"/>
<feGaussianBlur stdDeviation="4.5"/>
<feComposite in2="hardAlpha" operator="out"/>
<feColorMatrix type="matrix" values="0 0 0 0 0 0 0 0 0 0 0 0 0 0 0 0 0 0 0.05 0"/>
<feBlend mode="normal" in2="BackgroundImageFix" result="effect1_dropShadow_189_149"/>
<feColorMatrix in="SourceAlpha" type="matrix" values="0 0 0 0 0 0 0 0 0 0 0 0 0 0 0 0 0 0 127 0" result="hardAlpha"/>
<feOffset dx="2" dy="2"/>
<feGaussianBlur stdDeviation="1"/>
<feComposite in2="hardAlpha" operator="out"/>
<feColorMatrix type="matrix" values="0 0 0 0 1 0 0 0 0 1 0 0 0 0 1 0 0 0 0.2 0"/>
<feBlend mode="normal" in2="effect1_dropShadow_189_149" result="effect2_dropShadow_189_149"/>
<feBlend mode="normal" in="SourceGraphic" in2="effect2_dropShadow_189_149" result="shape"/>
<feColorMatrix in="SourceAlpha" type="matrix" values="0 0 0 0 0 0 0 0 0 0 0 0 0 0 0 0 0 0 127 0" result="hardAlpha"/>
<feOffset dx="2" dy="2"/>
<feGaussianBlur stdDeviation="1"/>
<feComposite in2="hardAlpha" operator="arithmetic" k2="-1" k3="1"/>
<feColorMatrix type="matrix" values="0 0 0 0 1 0 0 0 0 1 0 0 0 0 1 0 0 0 0.2 0"/>
<feBlend mode="normal" in2="shape" result="effect3_innerShadow_189_149"/>
<feColorMatrix in="SourceAlpha" type="matrix" values="0 0 0 0 0 0 0 0 0 0 0 0 0 0 0 0 0 0 127 0" result="hardAlpha"/>
<feOffset dx="-1" dy="-1"/>
<feGaussianBlur stdDeviation="0.5"/>
<feComposite in2="hardAlpha" operator="arithmetic" k2="-1" k3="1"/>
<feColorMatrix type="matrix" values="0 0 0 0 0 0 0 0 0 0 0 0 0 0 0 0 0 0 0.04 0"/>
<feBlend mode="normal" in2="effect3_innerShadow_189_149" result="effect4_innerShadow_189_149"/>
</filter>
<clipPath id="clip0_189_149">
<rect width="380" height="260" rx="16" fill="white"/>
</clipPath>
</defs>
</svg>
